<svg width="115" height="103" viewBox="0 0 115 103" fill="none" xmlns="http://www.w3.org/2000/svg">
<path d="M115 102.692L114.149 101.856L85.3574 73.5605L0.638672 97.9805L0 98.1641V0H115V102.692ZM13.8906 35.2324L23.2949 69.1084L32.1035 66.6631L28.1543 52.4346L33.5947 50.9248L31.8047 44.4795L26.3652 45.9902L24.5811 39.5664L30.6914 37.8701L28.8096 31.0908L13.8906 35.2324ZM32.5547 30.0508L37.4814 65.1709L46.6045 62.6377L45.4375 56.4033L48.5967 55.5264L50.7266 61.4932L59.7451 58.9902L45.2979 26.5127L32.5547 30.0508ZM62.5186 21.7324L63.6602 28.1992C64.5637 33.4024 65.69 39.3255 67.0381 45.9678C64.7887 39.6508 61.8318 31.9746 58.167 22.9404L48.876 25.5195L63.3652 57.9854L76.7354 54.2734L71.8096 19.1533L62.5186 21.7324ZM88.0947 15.0605C86.2853 14.7665 84.236 14.9372 81.9482 15.5723C79.856 16.1531 78.1658 16.9911 76.877 18.085C75.5842 19.165 74.7692 20.3977 74.4326 21.7832C74.11 23.1649 74.309 25.1534 75.0293 27.748C75.5288 29.5474 76.1695 30.9622 76.9512 31.9922C77.7468 33.0182 78.5911 33.7606 79.4844 34.2188C80.3778 34.6769 82.1212 35.3272 84.7139 36.1699C87.3028 36.9988 88.9621 37.6427 89.6904 38.1016C90.4048 38.5644 91.0391 39.7935 91.5928 41.7881C91.8443 42.6944 91.8876 43.4184 91.7227 43.96C91.5715 44.4977 91.2021 44.8481 90.6162 45.0107C90.0306 45.1732 89.5692 45.1063 89.2314 44.8096C88.9076 44.5088 88.5692 43.7235 88.2168 42.4541L87.0723 38.332L78.8906 40.6035L79.5068 42.8213C80.2116 45.3601 81.0136 47.2486 81.9131 48.4863C82.8126 49.7241 84.2162 50.5593 86.124 50.9912C88.0458 51.4193 90.1855 51.3058 92.543 50.6514C94.6911 50.055 96.4679 49.1489 97.873 47.9326C99.2743 46.7023 100.095 45.4374 100.336 44.1387C100.59 42.836 100.383 40.9777 99.7129 38.5645C98.7912 35.2444 97.6133 32.9795 96.1807 31.7695C94.7479 30.5597 91.7486 29.3341 87.1826 28.0928C85.5909 27.6632 84.5689 27.2025 84.1172 26.7119C83.6516 26.2252 83.2619 25.4169 82.9482 24.2871C82.7043 23.4084 82.6548 22.7159 82.7998 22.21C82.9588 21.7002 83.3031 21.3718 83.833 21.2246C84.3211 21.0891 84.7144 21.1525 85.0127 21.415C85.311 21.6778 85.623 22.3956 85.9482 23.5674L86.6455 26.0781L94.8271 23.8066L94.4551 22.4678C93.7077 19.7755 92.9141 17.9444 92.0742 16.9756C91.2444 15.9891 89.9178 15.3507 88.0947 15.0605ZM41.3955 35.7549C43.4064 41.2666 45.1674 45.8786 46.6787 49.5908L43.666 50.4277C43.0566 47.3666 42.2996 42.4754 41.3955 35.7549Z" fill="black"/>
</svg>
