<svg width="119" height="171" viewBox="0 0 119 171" fill="none" xmlns="http://www.w3.org/2000/svg">
<path d="M107.551 170.466C103.943 170.466 101.085 169.675 98.9754 168.094C96.8661 166.512 95.7422 164.347 95.6034 161.599H103.804C103.943 162.404 104.304 163.029 104.887 163.473C105.497 163.889 106.302 164.097 107.301 164.097C107.912 164.097 108.453 164.028 108.925 163.889C109.397 163.722 109.757 163.487 110.007 163.181C110.257 162.876 110.382 162.501 110.382 162.057C110.382 161.641 110.229 161.294 109.924 161.017C109.646 160.711 109.175 160.462 108.508 160.267C107.87 160.045 106.996 159.865 105.886 159.726C105.719 159.698 105.539 159.684 105.345 159.684C105.178 159.657 104.998 159.629 104.803 159.601C102.722 159.351 101.071 159.032 99.8496 158.644C98.6562 158.227 97.782 157.7 97.2269 157.062C96.6996 156.423 96.436 155.619 96.436 154.647C96.436 153.398 96.8523 152.302 97.6849 151.359C98.5174 150.415 99.6831 149.693 101.182 149.194C102.708 148.667 104.484 148.403 106.51 148.403C110.063 148.403 112.838 149.208 114.836 150.817C116.862 152.399 117.917 154.633 118 157.52H110.215C110.215 156.659 109.91 156.007 109.299 155.563C108.717 155.091 108.009 154.855 107.176 154.855C106.371 154.855 105.692 155.05 105.136 155.438C104.609 155.799 104.346 156.285 104.346 156.895C104.346 157.312 104.47 157.672 104.72 157.978C104.998 158.283 105.456 158.56 106.094 158.81C106.76 159.032 107.648 159.213 108.758 159.351C108.953 159.407 109.161 159.449 109.383 159.476C109.605 159.476 109.827 159.49 110.049 159.518C110.16 159.546 110.271 159.56 110.382 159.56C110.521 159.56 110.645 159.573 110.756 159.601C112.533 159.823 113.948 160.156 115.003 160.6C116.085 161.044 116.848 161.586 117.292 162.224C117.736 162.834 117.958 163.57 117.958 164.43C117.958 165.624 117.542 166.678 116.709 167.594C115.877 168.51 114.67 169.218 113.088 169.717C111.534 170.217 109.688 170.466 107.551 170.466Z" fill="black"/>
<path d="M76.8238 169.842L69.3306 149.027H77.6564L82.0691 163.015H82.5687L86.9814 149.027H95.1407L87.6474 169.842H76.8238Z" fill="black"/>
<path d="M50.6023 169.842L43.109 149.027H51.4349L55.8476 163.015H56.3471L60.7598 149.027H68.9191L61.4259 169.842H50.6023Z" fill="black"/>
<path d="M25.8248 170.3C24.1319 170.3 22.7165 169.87 21.5786 169.009C20.4408 168.149 19.8718 166.886 19.8718 165.221C19.8718 163.611 20.3853 162.363 21.4121 161.475C22.4667 160.586 23.6878 159.976 25.0755 159.643C26.4631 159.31 28.0173 159.06 29.738 158.894C30.9036 158.81 31.8333 158.644 32.5271 158.394C33.2209 158.116 33.5678 157.561 33.5678 156.729C33.5678 156.063 33.3319 155.591 32.8602 155.313C32.3884 155.008 31.8333 154.855 31.195 154.855C30.3069 154.855 29.5853 155.091 29.0303 155.563C28.503 156.035 28.2254 156.701 28.1977 157.561H20.8709C20.8987 155.646 21.3982 154.023 22.3696 152.691C23.3409 151.331 24.6176 150.318 26.1995 149.652C27.7814 148.958 29.5021 148.611 31.3615 148.611C33.1654 148.611 34.789 148.944 36.2321 149.61C37.6753 150.276 38.7993 151.261 39.6041 152.566C40.4367 153.842 40.853 155.383 40.853 157.187V162.973H42.8512V169.842H33.6095V161.766C33.2764 164.236 32.4716 166.276 31.195 167.885C29.9183 169.495 28.1283 170.3 25.8248 170.3ZM29.9461 164.305C30.5289 164.305 31.0978 164.069 31.6529 163.598C32.2357 163.126 32.7075 162.515 33.0683 161.766C33.4291 161.017 33.6095 160.267 33.6095 159.518V158.56C33.3319 158.838 33.0267 159.032 32.6936 159.143C32.3884 159.254 31.9304 159.393 31.3199 159.56C31.2921 159.56 31.2505 159.573 31.195 159.601C31.1672 159.601 31.1395 159.601 31.1117 159.601C30.1404 159.768 29.3633 160.045 28.7805 160.434C28.1977 160.822 27.9063 161.419 27.9063 162.224C27.9063 162.945 28.1005 163.473 28.4891 163.806C28.8776 164.139 29.3633 164.305 29.9461 164.305Z" fill="black"/>
<path d="M3.53849 169.842V156.104H0V149.027H3.53849V147.279C3.53849 145.669 3.89927 144.24 4.62085 142.991C5.37017 141.742 6.43866 140.771 7.8263 140.077C9.24169 139.383 10.9207 139.036 12.8634 139.036C14.6951 139.036 16.3187 139.356 17.7341 139.994C19.1494 140.632 20.2596 141.576 21.0644 142.825C21.897 144.073 22.3133 145.586 22.3133 147.362H14.9033V146.904C14.9033 146.405 14.6951 146.016 14.2788 145.739C13.8903 145.461 13.4185 145.322 12.8634 145.322C12.2806 145.322 11.7811 145.489 11.3648 145.822C10.9762 146.155 10.782 146.654 10.782 147.321C10.782 147.515 10.7958 147.709 10.8236 147.903C10.8514 148.07 10.8791 148.25 10.9069 148.445C10.9346 148.556 10.9485 148.653 10.9485 148.736C10.9762 148.819 11.004 148.916 11.0317 149.027H19.3576V156.104H11.448V169.842H3.53849Z" fill="black"/>
<path d="M0 59.1577V117.676L45.3183 78.7831L118.316 131.106V59.1577C118.316 26.4858 91.8297 0 59.1578 0C26.4858 0 0 26.4858 0 59.1577Z" fill="black"/>
</svg>
